<svg id="Laag_2" data-name="Laag 2" xmlns="http://www.w3.org/2000/svg" width="24.8" height="16.999"
  viewBox="0 0 24.8 16.999">
  <g id="Laag_1" data-name="Laag 1">
    <path id="Path_8222" data-name="Path 8222"
      d="M24.8,3.84H12.74a4.48,4.48,0,0,0-8.87,0H0V5.16H3.87a4.48,4.48,0,0,0,8.87,0H24.8ZM8.3,7a2.5,2.5,0,1,1,2.5-2.5A2.5,2.5,0,0,1,8.3,7Z"
      transform="translate(0 0.007)" fill="inherit" />
    <path id="Path_8223" data-name="Path 8223"
      d="M0,13.18H12.07a4.48,4.48,0,0,0,8.86,0H24.8V11.85H20.93a4.48,4.48,0,0,0-8.86,0H0ZM16.5,10A2.5,2.5,0,1,1,14,12.5,2.5,2.5,0,0,1,16.5,10Z"
      transform="translate(0 0.007)" fill="inherit" />
  </g>
</svg>